#tb 0: 1001/30000
0,          0,          0,        1,    63000, 31ef44bd12ae702f306c55eba10d2ba7
0,          1,          1,        1,    63000, 83e9d913f5aa058d79a81047ca45e4a2
0,          2,          2,        1,    63000, b5e21313b859f1e2c67aaac5fefc9f68
0,          3,          3,        1,    63000, 959d63c1b219c3479af673a9a8b8d82c
0,          4,          4,        1,    63000, ffcfaf42b69c7cd92f6e3c21987ff7df
0,          5,          5,        1,    63000, e9667d3ee4d8179da44de4fbffcb7df2
0,          6,          6,        1,    63000, 5e2c841bcf4ec6f3a05020d36986fe5b
0,          7,          7,        1,    63000, 19fe287c30bd4c90b00a9631409568c0
0,          8,          8,        1,    63000, 58a8843e50b19860a0a91e1e1bb63bfd
0,          9,          9,        1,    63000, 0ebd31e18597a567f96645acbb2500cf
